# AST/ASF file generated using VICON BodyLanguage
# -----------------------------------------------
:version 1.10
:name VICON
:units
  mass 1.0
  length 0.45
  angle deg
:documentation
   .ast/.asf automatically generated from VICON data using
   VICON BodyBuilder and BodyLanguage model FoxedUp or BRILLIANT.MOD
:root
   order TX TY TZ RX RY RZ
   axis XYZ
   position 0 0 0  
   orientation 0 0 0 
:bonedata
  begin
     id 1 
     name lhipjoint
     direction 0.603808 -0.713975 0.35448 
     length 2.2025 
     axis 0 0 0  XYZ
  end
  begin
     id 2 
     name lfemur
     direction 0.34202 -0.939693 0  
     length 6.55877  
     axis 0 0 20  XYZ
    dof rx ry rz
    limits (-160.0 20.0)
           (-70.0 70.0)
           (-60.0 70.0)
  end
  begin
     id 3 
     name ltibia
     direction 0.34202 -0.939693 0   
     length 6.80302   
     axis 0 0 20   XYZ
    dof rx
    limits (-10.0 170.0)
  end
  begin
     id 4 
     name lfoot
     direction 0.091848 -0.25235 0.963267   
     length 2.03446   
     axis -90 7.62852e-016 20   XYZ
    dof rx rz
    limits (-45.0 90.0)
           (-70.0 20.0)
  end
  begin
     id 5 
     name ltoes
     direction 1.53608e-011 -4.21925e-011 1   
     length 1.02033   
     axis -90 7.62852e-016 20   XYZ
    dof rx
    limits (-90.0 20.0)
  end
  begin
     id 6 
     name rhipjoint
     direction -0.587285 -0.724947 0.359928   
     length 2.16916  
     axis 0 0 0  XYZ 
  end
  begin
     id 7 
     name rfemur
     direction -0.34202 -0.939693 0   
     length 6.43173   
     axis 0 0 -20   XYZ
    dof rx ry rz
    limits (-160.0 20.0)
           (-70.0 70.0)
           (-70.0 60.0)
  end
  begin
     id 8 
     name rtibia
     direction -0.34202 -0.939693 0   
     length 6.70662   
     axis 0 0 -20   XYZ
    dof rx
    limits (-10.0 170.0)
 end
 begin
     id 9 
     name rfoot
     direction -0.11854 -0.325686 0.938018   
     length 2.0773  
     axis -90 -7.62852e-016 -20   XYZ
    dof rx rz
    limits (-45.0 90.0)
           (-20.0 70.0)
  end
  begin
     id 10 
     name rtoes
     direction -1.53547e-011 -4.21838e-011 1   
     length 1.03267   
     axis -90 -7.62852e-016 -20   XYZ
    dof rx
    limits (-90.0 20.0)
  end
  begin
     id 11 
     name lowerback
     direction -0.0286554 0.999539 0.0100613   
     length 2.08751   
     axis 0 0 0   XYZ
    dof rx ry rz
    limits (-20.0 45.0)
           (-30.0 30.0)
           (-30.0 30.0)
  end
  begin
     id 12 
     name upperback
     direction 0.0227093 0.999705 -0.00860929   
     length 2.08517   
     axis 0 0 0   XYZ
    dof rx ry rz
    limits (-20.0 45.0)
           (-30.0 30.0)
           (-30.0 30.0)
  end
  begin
     id 13 
     name thorax
     direction 0.0351627 0.999285 -0.013892   
     length 2.08412   
     axis 0 0 0   XYZ
    dof rx ry rz
    limits (-20.0 45.0)
           (-30.0 30.0)
           (-30.0 30.0)
  end
  begin
     id 14 
     name lowerneck
     direction -0.0696283 0.997344 0.0213922   
     length 1.44164   
     axis 0 0 0   XYZ
    dof rx ry rz
    limits (-20.0 45.0)
           (-30.0 30.0)
           (-30.0 30.0)
  end
  begin
     id 15 
     name upperneck
     direction 0.0531 0.990412 -0.127531   
     length 1.45022   
     axis 0 0 0   XYZ
    dof rx ry rz
    limits (-20.0 45.0)
           (-30.0 30.0)
           (-30.0 30.0)
  end
  begin
     id 16
     name head
     direction 0.0188154 0.998548 -0.0504727  
     length 1.45845  
     axis 0 0 0   XYZ
    dof rx ry rz
    limits (-20.0 45.0)
           (-30.0 30.0)
           (-30.0 30.0)
  end
  begin
     id 17 
     name lclavicle
     direction 0.961559 0.260051 0.088188  
     length 2.86057  
     axis 0 0 0   XYZ
    dof ry rz
    limits (-20.0 10.0)
           (0.0 20.0)
  end
  begin
     id 18 
     name lhumerus
     direction 1 -4.48959e-011 2.88185e-027   
     length 4.36901   
     axis 180 -30 -90   XYZ
    dof rx ry rz
    limits (-60.0 90.0)
           (-90.0 90.0)
           (-90.0 90.0)
  end
  begin
     id 19
     name lradius
     direction 1 -4.48965e-011 -3.92618e-028   
     length 3.21737   
     axis 180 -30 -90   XYZ
    dof rx
    limits (-10.0 170.0)
  end
  begin
     id 20
     name lwrist
     direction 1 -4.49037e-011 2.57246e-027   
     length 1.60869   
     axis -1.61769e-015 90 90   XYZ
    dof ry
    limits (-180.0 0.0)
 end
  begin
     id 21 
     name lhand
     direction 1 -4.48807e-011 5.12958e-027   
     length 0.564313   
     axis -3.27988e-015 90 90   XYZ
    dof rx rz
    limits (-90.0 90.0)
           (-45.0 45.0)
  end
  begin
     id 22 
     name lfingers
     direction 1 -4.48879e-011 1.02687e-026   
     length 0.454963   
     axis -6.5598e-015 90 90   XYZ
    dof rx
    limits (0.0 90.0)
  end
  begin
     id 23
     name lthumb
     direction 0.707107 -6.3475e-011 0.707107   
     length 0.653239   
     axis -90 45 2.19363e-014   XYZ
    dof rx rz
    limits (-45.0 45.0)
           (-45.0 45.0)
  end
  begin
     id 24 
     name rclavicle
     direction -0.954677 0.253915 0.155304   
     length 3.11497  
     axis 0 0 0   XYZ 
    dof ry rz
    limits (-10.0 20.0)
           (-20.0 0.0)
  end
  begin
     id 25 
     name rhumerus
     direction -1 -4.48958e-011 -8.20169e-028  
     length 4.34118   
     axis 180 30 90   XYZ
    dof rx ry rz
    limits (-90.0 60.0)
           (-90.0 90.0)
           (-90.0 90.0)
  end
  begin
     id 26 
     name rradius
     direction -1 -4.48978e-011 1.5676e-027   
     length 3.09531   
     axis 180 30 90   XYZ
    dof rx
    limits (-10.0 170.0)
  end
  begin
     id 27 
     name rwrist
     direction -1 -4.49001e-011 2.57123e-027   
     length 1.54765   
     axis -1.61769e-015 -90 -90   XYZ
    dof ry
    limits (-180.0 0.0)
  end
  begin
     id 28
     name rhand
     direction -1 -4.48847e-011 5.13225e-027   
     length 0.597446   
     axis -3.27988e-015 -90 -90   XYZ
    dof rx rz
    limits (-90.0 90.0)
           (-45.0 45.0)
  end
  begin
     id 29
     name rfingers
     direction -1 -4.49094e-011 1.02974e-026   
     length 0.481677   
     axis -6.5598e-015 -90 -90   XYZ
    dof rx
    limits (0.0 90.0)
  end
  begin
     id 30
     name rthumb
     direction -0.707107 -6.34859e-011 0.707107   
     length 0.691594   
     axis -90 -45 -2.19363e-014   XYZ
    dof rx rz
    limits (-45.0 45.0)
           (-45.0 45.0)
  end
:hierarchy
  begin
    root lhipjoint rhipjoint lowerback
    lhipjoint lfemur
    lfemur ltibia
    ltibia lfoot
    lfoot ltoes
    rhipjoint rfemur
    rfemur rtibia
    rtibia rfoot
    rfoot rtoes
    lowerback upperback
    upperback thorax
    thorax lowerneck lclavicle rclavicle
    lowerneck upperneck
    upperneck head
    lclavicle lhumerus
    lhumerus lradius
    lradius lwrist
    lwrist lhand lthumb
    lhand lfingers
    rclavicle rhumerus
    rhumerus rradius
    rradius rwrist
    rwrist rhand rthumb
    rhand rfingers
  end

#!OML:ASF I:\Acrobat_Osman\acrobat\cartwheel_test 2\Patient 1\Session 1\acrobat.ASF
:FULLY-SPECIFIED
:DEGREES
1873
root 4.27642 28.223 23.9007 104.129 -94.2102 -275.744
lowerback -8.33476 2.60696 -1.14786
upperback -11.3208 3.3195 1.24705
thorax -7.40485 1.82197 2.00627
lowerneck -18.14 -4.5699 -5.88143
upperneck -9.03192 -5.38427 8.35858
head 0.59943 -2.74355 3.47081
rclavicle 2.78299e-014 2.06736e-014
rhumerus 99.4419 -31.9442 -46.1118
rradius 29.6358
rwrist -44.5582
rhand -62.7672 84.0404
rfingers 7.12502
rthumb -34.782 57.4337
lclavicle 2.78299e-014 2.06736e-014
lhumerus -98.6293 133.817 214.777
lradius 42.5025
lwrist -331.755
lhand -45.0792 -280.258
lfingers 7.12502
lthumb -17.8598 971.058
rfemur -8.48428 -1.97044 22.6134
rtibia 45.5803
rfoot 16.8125 -5.47268
rtoes -4.84128
lfemur 168.244 177.932 155.013
ltibia 47.5716
lfoot 19.7904 -6.90424
ltoes 5.57523
1874
root 4.19439 28.2402 24.0813 133.855 -95.5168 -305.409
lowerback -8.14799 2.88831 -0.63227
upperback -11.2939 3.66659 1.09219
thorax -7.44795 1.94563 1.55344
lowerneck -18.1769 -4.43982 -5.85092
upperneck -9.5094 -5.22056 7.96219
head 0.412811 -2.68898 3.34247
rclavicle -3.26007e-014 -4.85035e-014
rhumerus 97.2452 -35.821 -41.6731
rradius 30.8732
rwrist -46.6116
rhand -63.0411 77.8812
rfingers 7.12502
rthumb -35.0419 51.335
lclavicle -3.26007e-014 -4.85035e-014
lhumerus -101.487 134.494 211.342
lradius 42.6265
lwrist -327.038
lhand -44.2479 -274.602
lfingers 7.12502
lthumb -17.0598 965.331
rfemur -8.719 -2.58852 22.3262
rtibia 45.7193
rfoot 15.4378 -2.03916
rtoes 1.16229
lfemur 168.697 177.375 154.884
ltibia 47.3816
lfoot 19.4702 -5.97948
ltoes 4.7865
1875
root 4.10213 28.2746 24.252 151.692 -97.7186 -323.159
lowerback -8.00854 3.04783 -0.089521
upperback -11.1461 3.86193 0.929813
thorax -7.31621 1.99197 1.08208
lowerneck -18.6506 -4.16108 -5.11432
upperneck -9.69797 -4.98846 7.41031
head 0.363832 -2.61184 3.02433
rclavicle 1.13307e-013 1.59028e-014
rhumerus 93.5504 -40.7419 -35.5699
rradius 32.4354
rwrist -50.2377
rhand -62.8387 67.9209
rfingers 7.12502
rthumb -34.8499 41.33
lclavicle 1.13307e-013 1.59028e-014
lhumerus -100.811 135.272 211.006
lradius 41.5958
lwrist -323.932
lhand -43.6294 -271.629
lfingers 7.12502
lthumb -16.4644 962.307
rfemur -8.60514 -2.38874 22.3706
rtibia 45.7696
rfoot 16.4852 -2.43854
rtoes 0.716621
lfemur 168.964 177.25 155.042
ltibia 47.2573
lfoot 19.0679 -6.26644
ltoes 1.7407
1876
root 4.00698 28.3048 24.4201 162.253 -100.501 -333.608
lowerback -7.81421 3.24196 0.426769
upperback -11.085 4.11702 0.963738
thorax -7.32842 2.08507 0.826175
lowerneck -18.8455 -4.20732 -5.42697
upperneck -9.78818 -4.99908 7.29628
head 0.370027 -2.61816 3.04138
rclavicle 1.35571e-013 2.8625e-014
rhumerus 90.8831 -44.4527 -31.0501
rradius 33.4635
rwrist -51.819
rhand -61.78 55.6744
rfingers 7.12502
rthumb -33.8447 28.8563
lclavicle 1.35571e-013 2.8625e-014
lhumerus -98.6951 136.523 212.786
lradius 40.079
lwrist -321.864
lhand -43.8876 -270.84
lfingers 7.12502
lthumb -16.7129 961.54
rfemur -8.55641 -2.63706 22.5203
rtibia 45.7515
rfoot 17.0626 -2.9514
rtoes 2.33248
lfemur 169.032 177.725 155.33
ltibia 47.1669
lfoot 18.3705 -7.38303
ltoes -1.95397
1877
root 3.9143 28.3286 24.5833 168.119 -103.447 -339.346
lowerback -7.60477 3.3173 0.875163
upperback -11.1921 4.23275 1.10909
thorax -7.54695 2.12577 0.71512
lowerneck -18.5251 -4.19356 -5.87041
upperneck -9.93019 -4.90616 7.31251
head 0.278045 -2.56583 3.14268
rclavicle 1.73738e-013 3.73715e-014
rhumerus 93.6617 -45.2607 -33.4465
rradius 32.7772
rwrist -48.8606
rhand -60.2967 47.9447
rfingers 7.12502
rthumb -32.4343 20.8268
lclavicle 1.73738e-013 3.73715e-014
lhumerus -98.3458 137.732 213.194
lradius 39.4819
lwrist -319.19
lhand -44.7688 -450.225
lfingers 7.12502
lthumb -17.5612 960.548
rfemur -8.53034 -2.96069 22.5888
rtibia 45.6642
rfoot 17.5952 -3.28498
rtoes 4.31901
lfemur 168.984 178.331 155.548
ltibia 47.1134
lfoot 18.0399 -7.15639
ltoes -1.24088
1878
root 3.82932 28.3471 24.7386 171.534 -106.315 -342.628
lowerback -7.53011 3.31031 1.14902
upperback -11.3106 4.24854 1.30322
thorax -7.71874 2.13472 0.757834
lowerneck -18.1084 -4.0923 -5.97176
upperneck -9.98441 -4.767 7.21805
head 0.182499 -2.49838 3.14439
rclavicle 1.01778e-013 8.42847e-014
rhumerus 90.845 -47.7309 -31.4031
rradius 36.1419
rwrist -50.6591
rhand -59.4659 45.0187
rfingers 7.12502
rthumb -31.6432 17.7419
lclavicle 1.01778e-013 8.42847e-014
lhumerus -98.8215 138.537 212.65
lradius 39.3391
lwrist -316.173
lhand -45.1586 -451.777
lfingers 7.12502
lthumb -17.9362 959.03
rfemur -8.55717 -3.19175 22.6303
rtibia 45.609
rfoot 17.46 -2.91985
rtoes 6.36283
lfemur 168.91 178.627 155.677
ltibia 47.0237
lfoot 18.02 -6.22585
ltoes 1.22323
1879
root 3.7499 28.3616 24.8836 173.406 -109.094 -344.351
lowerback -7.57091 3.2505 1.0709
upperback -11.3537 4.20471 1.57966
thorax -7.77361 2.14634 1.09017
lowerneck -18.1101 -4.12503 -6.27454
upperneck -9.61539 -4.7677 7.18291
head 0.315245 -2.48013 3.18549
rclavicle -7.79236e-014 -3.33958e-014
rhumerus 86.8309 -50.1441 -28.1529
rradius 39.6604
rwrist -52.5038
rhand -58.8556 43.4906
rfingers 7.12502
rthumb -31.0618 16.1009
lclavicle -7.79236e-014 -3.33958e-014
lhumerus -99.3941 138.903 211.868
lradius 39.168
lwrist -313.304
lhand -44.9203 -453.331
lfingers 7.12502
lthumb -17.707 957.455
rfemur -8.56511 -2.93717 22.619
rtibia 45.6025
rfoot 18.7948 -2.70466
rtoes 5.99574
lfemur 168.829 178.536 155.629
ltibia 46.8907
lfoot 18.2632 -5.11083
ltoes 3.44147
1880
root 3.673 28.3785 25.0209 174.162 -111.696 -344.941
lowerback -7.6248 3.1713 0.771154
upperback -11.4166 4.13933 1.86466
thorax -7.85998 2.16536 1.55459
lowerneck -18.1603 -4.265 -7.03855
upperneck -9.2311 -4.82614 7.23166
head 0.482294 -2.47688 3.33978
rclavicle 1.93219e-013 7.79236e-014
rhumerus 81.3413 -52.2485 -23.9
rradius 43.7202
rwrist -53.7556
rhand -58.6736 42.3229
rfingers 7.12502
rthumb -30.8883 14.9002
lclavicle 1.93219e-013 7.79236e-014
lhumerus -99.8087 139.248 211.32
lradius 38.9432
lwrist -310.823
lhand -44.5655 -455.219
lfingers 7.12502
lthumb -17.3655 955.536
rfemur -8.61124 -2.27496 22.3987
rtibia 45.667
rfoot 18.8846 -2.9871
rtoes 1.65212
lfemur 168.838 178.213 155.321
ltibia 46.6836
lfoot 18.5215 -3.61309
ltoes 6.1207
1881
root 3.59433 28.3993 25.1537 174.714 -114.146 -345.451
lowerback -7.64694 3.07705 0.74394
upperback -11.4332 4.04625 2.06797
thorax -7.88331 2.1438 1.78256
lowerneck -17.8783 -3.59953 -5.40282
upperneck -9.07291 -4.26855 5.97528
head 0.360801 -2.25501 2.63767
rclavicle 1.53064e-013 4.6118e-014
rhumerus 74.6875 -53.9925 -19.5197
rradius 48.5173
rwrist -54.8454
rhand -58.7339 41.7549
rfingers 7.12502
rthumb -30.9457 14.3431
lclavicle 1.53064e-013 4.6118e-014
lhumerus -99.8685 139.508 210.9
lradius 38.5951
lwrist -308.47
lhand -44.2064 -457.378
lfingers 7.12502
lthumb -17.0199 953.348
rfemur -8.58883 -1.74235 22.1135
rtibia 45.7548
rfoot 18.0646 -3.34643
rtoes 1.5134
lfemur 169.009 178.125 155.01
ltibia 46.4243
lfoot 18.5956 -2.20353
ltoes 8.45924
1882
root 3.52106 28.4165 25.2823 175.264 -116.355 -345.971
lowerback -7.78764 3.00632 0.868861
upperback -11.4276 3.97506 2.2438
thorax -7.80118 2.11943 1.90471
lowerneck -17.6385 -4.3927 -5.13663
upperneck -9.12817 -4.0967 6.116
head 0.305503 -1.34849 2.6531
rclavicle -2.22639e-014 1.27222e-014
rhumerus 68.7246 -54.9945 -16.6127
rradius 53.2315
rwrist -55.402
rhand -58.6053 42.1419
rfingers 7.12502
rthumb -30.8231 14.7068
lclavicle -2.22639e-014 1.27222e-014
lhumerus -99.4074 139.968 211.136
lradius 38.0963
lwrist -306.866
lhand -43.6938 -459.303
lfingers 7.12502
lthumb -16.5264 951.381
rfemur -8.66432 -1.57998 21.8042
rtibia 45.8675
rfoot 16.6042 -2.9484
rtoes 2.24974
lfemur 169.166 178.274 154.696
ltibia 46.0981
lfoot 18.3932 -1.29899
ltoes 9.51224
1883
root 3.44945 28.4388 25.4088 175.756 -118.207 -346.392
lowerback -8.08478 2.98893 1.05948
upperback -11.4326 3.96865 2.45933
thorax -7.64404 2.12599 2.0407
lowerneck -17.5502 -4.3136 -5.16505
upperneck -9.04915 -4.00867 6.11645
head 0.313412 -1.31675 2.66459
rclavicle -7.71285e-014 -6.99722e-014
rhumerus 64.9941 -54.96 -16.599
rradius 57.5291
rwrist -54.976
rhand -58.4452 42.9668
rfingers 7.12502
rthumb -30.6705 15.5031
lclavicle -7.71285e-014 -6.99722e-014
lhumerus -98.9084 140.56 211.67
lradius 37.6151
lwrist -305.77
lhand -43.0544 -460.406
lfingers 7.12502
lthumb -15.9107 950.228
rfemur -8.67318 -1.31014 21.4381
rtibia 45.9707
rfoot 17.0995 -3.71441
rtoes 1.60935
lfemur 169.215 178.257 154.329
ltibia 45.7529
lfoot 17.9158 -1.71998
ltoes 6.93943
1884
root 3.37651 28.4619 25.5302 176.065 -119.923 -346.758
lowerback -8.26622 2.95137 1.31463
upperback -11.4046 3.93774 2.69309
thorax -7.51217 2.1153 2.15437
lowerneck -17.6214 -4.17238 -5.04168
upperneck -8.84747 -3.86191 5.83682
head 0.371677 -1.26443 2.55486
rclavicle 2.54444e-014 -1.59028e-015
rhumerus 66.3346 -52.8432 -21.9094
rradius 60.1506
rwrist -51.9787
rhand -58.4715 43.0701
rfingers 7.12502
rthumb -30.6956 15.6111
lclavicle 2.54444e-014 -1.59028e-015
lhumerus -98.8049 141.023 211.795
lradius 37.2834
lwrist -304.485
lhand -42.6409 -461.285
lfingers 7.12502
lthumb -15.5125 949.317
rfemur -8.60402 -1.26412 21.0202
rtibia 46.0523
rfoot 17.0151 -4.30589
rtoes 1.70813
lfemur 169.342 178.244 153.948
ltibia 45.4283
lfoot 17.3583 -2.93682
ltoes 1.91944
1885
root 3.30511 28.4839 25.6381 176.181 -121.509 -346.939
lowerback -8.34429 2.89138 1.44747
upperback -11.3996 3.87952 2.89996
thorax -7.46967 2.09723 2.30118
lowerneck -17.7576 -4.08073 -5.07818
upperneck -8.59249 -3.7479 5.65633
head 0.468135 -1.22077 2.50636
rclavicle 6.59965e-014 3.49861e-014
rhumerus 60.4559 -52.8172 -21.5523
rradius 65.5919
rwrist -53.765
rhand -59.059 43.1347
rfingers 7.12502
rthumb -31.2556 15.7822
lclavicle 6.59965e-014 3.49861e-014
lhumerus -98.201 141.38 211.11
lradius 36.2893
lwrist -302.676
lhand -42.896 -462.303
lfingers 7.12502
lthumb -15.7582 948.319
rfemur -8.66435 -1.07004 20.6558
rtibia 46.108
rfoot 16.2895 -4.12452
rtoes 1.83216
lfemur 169.431 178.368 153.534
ltibia 45.1604
lfoot 17.1707 -3.8299
ltoes -2.34622
1886
root 3.23607 28.5076 25.7326 176.362 -122.868 -347.186
lowerback -8.37073 2.83881 1.54241
upperback -11.448 3.83494 3.1415
thorax -7.52223 2.09156 2.50232
lowerneck -17.8745 -4.03434 -5.30003
upperneck -8.30503 -3.6614 5.5925
head 0.582798 -1.18504 2.53048
rclavicle -7.95139e-016 -1.74931e-014
rhumerus 62.959 -49.2792 -28.8389
rradius 66.8362
rwrist -51.8613
rhand -58.1507 41.3428
rfingers 7.12502
rthumb -30.3897 13.8268
lclavicle -7.95139e-016 -1.74931e-014
lhumerus -92.471 143.484 215.34
lradius 32.5677
lwrist -305.043
lhand -43.3757 -461.998
lfingers 7.12502
lthumb -16.2202 948.66
rfemur -8.78265 -0.250334 20.4817
rtibia 46.1275
rfoot 16.6432 -4.89463
rtoes 0.9093
lfemur 169.402 178.382 153.241
ltibia 44.9662
lfoot 15.4074 -4.98753
ltoes -6.04969
1887
root 3.17636 28.527 25.8184 176.5 -124.103 -347.39
lowerback -8.4105 2.7459 1.58952
upperback -11.4954 3.73538 3.3655
thorax -7.56535 2.06058 2.71185
lowerneck -17.7482 -4.15696 -5.66045
upperneck -8.27656 -3.76977 5.91558
head 0.597962 -1.22863 2.70116
rclavicle 3.73715e-014 4.92986e-014
rhumerus 61.9041 -46.1288 -33.4622
rradius 69.3557
rwrist -51.7887
rhand -58.555 38.9167
rfingers 7.12502
rthumb -30.7751 11.4726
lclavicle 3.73715e-014 4.92986e-014
lhumerus -92.792 143.877 215.45
lradius 32.5456
lwrist -304.034
lhand -43.3203 -461.9
lfingers 7.12502
lthumb -16.1668 948.755
rfemur -9.01048 0.574829 20.3022
rtibia 46.1283
rfoot 15.3232 -5.69144
rtoes 1.43329
lfemur 169.306 178.211 153.003
ltibia 44.8162
lfoot 15.5271 -6.31304
ltoes -11.0007
